<?xml version="1.0" encoding="UTF-8" standalone="no"?>
<!-- Created with Inkscape (http://www.inkscape.org/) -->

<svg
   width="184.27818"
   height="57.751785"
   viewBox="0 0 48.756939 15.28016"
   version="1.1"
   id="svg5"
   inkscape:version="1.1.2 (0a00cf5339, 2022-02-04)"
   sodipodi:docname="logo.svg"
   xmlns:inkscape="http://www.inkscape.org/namespaces/inkscape"
   xmlns:sodipodi="http://sodipodi.sourceforge.net/DTD/sodipodi-0.dtd"
   xmlns="http://www.w3.org/2000/svg"
   xmlns:svg="http://www.w3.org/2000/svg">
  <sodipodi:namedview
     id="namedview7"
     pagecolor="#ffffff"
     bordercolor="#666666"
     borderopacity="1.0"
     inkscape:pageshadow="2"
     inkscape:pageopacity="0.0"
     inkscape:pagecheckerboard="0"
     inkscape:document-units="mm"
     showgrid="false"
     inkscape:zoom="4"
     inkscape:cx="66.500001"
     inkscape:cy="2.125"
     inkscape:window-width="1920"
     inkscape:window-height="1016"
     inkscape:window-x="0"
     inkscape:window-y="0"
     inkscape:window-maximized="1"
     inkscape:current-layer="layer1"
     inkscape:showpageshadow="false"
     units="px"
     width="400px"
     showborder="true"
     fit-margin-top="0"
     fit-margin-left="0"
     fit-margin-right="0"
     fit-margin-bottom="0" />
  <defs
     id="defs2" />
  <g
     inkscape:label="Layer 1"
     inkscape:groupmode="layer"
     id="layer1"
     transform="translate(-1.928067,-0.34769943)">
    <path
       id="text6958"
       style="font-size:21.4379px;line-height:1.25;font-family:'Rationale One';-inkscape-font-specification:'Rationale One';letter-spacing:-0.776866px;word-spacing:0px;fill:#0f4c81;fill-opacity:1;stroke-width:1.01281"
       d="m 114.92773,0 c -1.67105,0 -2.14843,0.49596212 -2.14843,2.2285156 V 20.625 57.751953 h 4.21679 c 1.67106,0 2.14844,-0.495962 2.14844,-2.228515 V 0 Z m -2.14843,20.625 c -0.6366,-3.135097 -1.672,-4.785156 -4.77539,-4.785156 h -7.5586 c -5.490616,0 -7.560544,2.145215 -7.560544,7.83789 v 26.236328 c 0,5.692676 2.069928,7.837891 7.560544,7.837891 h 8.75391 c 1.67106,0 1.98828,-0.495962 1.98828,-2.228515 v -2.556641 h -8.19531 c -3.262544,0 -3.740237,-1.320521 -3.740237,-4.703125 V 25.328125 c 0,-3.382604 0.477693,-4.703125 3.740237,-4.703125 z M 7.5585938,15.839844 C 2.0679753,15.839844 0,17.985059 0,23.677734 v 8.167969 c 0,5.692676 1.2730534,7.34375 6.7636719,7.34375 h 4.1386721 c 3.262541,0 3.740234,1.318568 3.740234,4.701172 v 4.373047 c 0,3.382604 -0.477693,4.703125 -3.740234,4.703125 H 0 v 2.556641 c 0,1.732553 0.31917658,2.228515 1.9902344,2.228515 H 13.447266 c 5.490618,0 7.560546,-2.145215 7.560546,-7.837891 v -8.167968 c 0,-5.692676 -1.273053,-7.341797 -6.763671,-7.341797 h -4.138672 c -3.2625417,0 -3.7402346,-0.6605 -3.7402346,-4.703125 v -4.373047 c 0,-3.382604 0.4776929,-4.703125 3.7402346,-4.703125 h 10.105469 v -2.556641 c 0,-1.732553 -0.317224,-2.228515 -1.988282,-2.228515 z m 25.2871092,0 c -3.103393,0 -4.138797,1.650059 -4.775391,4.785156 h 13.767579 c 3.262541,0 3.738281,1.320521 3.738281,4.703125 v 12.458984 17.736329 c 0,1.732553 0.47738,2.228515 2.148437,2.228515 h 4.21875 V 23.677734 c 0,-5.692675 -2.069928,-7.83789 -7.560547,-7.83789 z m 12.730469,21.947265 c -0.636594,-3.135096 -1.670045,-4.785156 -4.773438,-4.785156 h -6.763672 c -5.490618,0 -7.560546,2.143262 -7.560546,7.835938 v 9.076171 c 0,5.692676 2.069928,7.837891 7.560546,7.837891 h 7.957032 c 1.671058,0 1.990234,-0.495962 1.990234,-2.228515 v -2.556641 h -6.605469 c -3.262541,0 -4.535156,-1.320521 -4.535156,-4.703125 v -5.775391 c 0,-3.382604 1.272615,-4.701172 4.535156,-4.701172 z M 61.552734,15.839844 c -1.671057,0 -2.148437,0.495962 -2.148437,2.228515 v 39.683594 h 4.216797 c 1.671058,0 2.148437,-0.495962 2.148437,-2.228515 V 20.625 15.839844 Z M 65.769531,20.625 h 9.78711 c 3.262541,0 3.740234,1.320521 3.740234,4.703125 v 32.423828 h 4.21875 c 1.671058,0 2.148438,-0.495962 2.148437,-2.228515 V 23.677734 c 0,-5.692675 -2.069928,-7.83789 -7.560546,-7.83789 h -7.558594 c -3.103393,0 -4.138797,1.650059 -4.775391,4.785156 z m 68.236329,-4.785156 c -5.49062,0 -7.55859,2.145215 -7.55859,7.83789 v 26.236328 c 0,5.692676 2.06797,7.837891 7.55859,7.837891 h 13.60742 c 1.67106,0 1.99024,-0.495962 1.99024,-2.228515 v -2.556641 h -13.05079 c -3.26254,0 -3.74023,-1.320521 -3.74023,-4.703125 V 25.328125 c 0,-3.382604 1.27261,-4.703125 4.53516,-4.703125 h 3.66211 c 3.26254,0 4.53515,1.320521 4.53515,4.703125 v 5.939453 c 0,3.382605 -0.47769,4.703125 -3.74023,4.703125 h -7.40039 v 2.558594 c 0,1.732553 0.31917,2.226562 1.99023,2.226562 h 7.95703 c 5.49062,0 7.5586,-2.145214 7.5586,-7.83789 v -9.240235 c 0,-5.692675 -2.06798,-7.83789 -7.5586,-7.83789 z m 31.57226,0 c -5.49061,0 -7.55859,2.145215 -7.55859,7.83789 v 26.236328 c 0,5.692676 2.06798,7.837891 7.55859,7.837891 h 11.14063 c 5.49062,0 7.55859,-2.145215 7.55859,-7.837891 V 23.677734 c 0,-5.692675 -2.06797,-7.83789 -7.55859,-7.83789 z M 168.125,20.625 h 6.04688 c 3.26254,0 3.74023,1.320521 3.74023,4.703125 v 22.935547 c 0,3.382604 -0.47769,4.703125 -3.74023,4.703125 H 168.125 c -3.26254,0 -3.74023,-1.320521 -3.74023,-4.703125 V 25.328125 c 0,-3.382604 0.47769,-4.703125 3.74023,-4.703125 z"
       transform="matrix(0.26458333,0,0,0.26458333,1.928067,0.34769943)" />
  </g>
</svg>
